<svg width="40.000000" height="40.000000" viewBox="0 0 40 40" fill="none" xmlns="http://www.w3.org/2000/svg" xmlns:xlink="http://www.w3.org/1999/xlink">
	<desc>
			Created with Pixso.
	</desc>
	<defs/>
	<circle id="Ellipse 3" cx="20.000000" cy="20.000000" r="20.000000" fill="#DFDFDF" fill-opacity="1.000000"/>
	<path id="Vector" d="M22.91 27.44C22.92 27.44 22.93 27.43 22.95 27.43C31.1 24.19 28.84 12 20 12C15.57 12 12 15.61 12 19.99C12 25.54 17.62 29.5 22.91 27.44ZM15.52 25.37C16.09 24.41 17.93 21.72 21.07 20.79C21.72 22.46 22.19 24.41 22.23 26.62C19.85 27.42 17.34 26.89 15.52 25.37ZM23.21 26.21C23.13 24.08 22.69 22.2 22.07 20.56C23.46 20.35 25.07 20.49 26.89 21.22C26.51 23.4 25.12 25.22 23.21 26.21ZM27 20.19C24.99 19.43 23.22 19.34 21.69 19.63C21.45 19.1 21.2 18.59 20.94 18.11C23.29 17.18 24.68 16.03 25.3 15.43C26.4 16.7 27.05 18.34 27 20.19ZM24.59 14.72C24.02 15.25 22.69 16.34 20.41 17.23C19.3 15.46 18.1 14.22 17.34 13.52C19.77 12.53 22.56 12.95 24.59 14.72ZM16.39 14.01C16.96 14.51 18.21 15.72 19.42 17.58C17.76 18.12 15.68 18.51 13.14 18.56C13.55 16.63 14.75 15 16.39 14.01ZM13.02 19.57C15.85 19.52 18.15 19.07 19.96 18.47C20.21 18.91 20.45 19.39 20.68 19.88C17.52 20.89 15.55 23.48 14.79 24.66C13.57 23.3 12.9 21.52 13.02 19.57Z" fill="#211105" fill-opacity="1.000000" fill-rule="nonzero"/>
</svg>
