<svg width="63.000000" height="54.000000" viewBox="0 0 63 54" fill="none" xmlns="http://www.w3.org/2000/svg" xmlns:xlink="http://www.w3.org/1999/xlink">
	<desc>
			Created with Pixso.
	</desc>
	<defs/>
	<g opacity="0.100000">
		<path id="Vector" d="M50.61 11.67C46.42 4.36 39.27 0 31.49 0C23.72 0 16.57 4.36 12.38 11.67L2.27 29.28C0.59 32.2 -0.18 35.58 0.03 39.04C0.24 42.51 1.42 45.73 3.44 48.37C5.46 51.01 8.13 52.81 11.17 53.59C14.2 54.36 17.3 54.03 20.15 52.63L20.34 52.54C27.51 49.09 35.69 49.12 42.84 52.63C44.68 53.54 46.63 54 48.6 54C49.68 54 50.75 53.86 51.82 53.59C54.85 52.81 57.52 51.01 59.55 48.37C61.57 45.73 62.75 42.51 62.96 39.04C63.17 35.58 62.4 32.2 60.72 29.28L50.61 11.67Z" fill="#FDBE24" fill-opacity="1.000000" fill-rule="nonzero"/>
	</g>
</svg>
