<svg width="41.550781" height="16.070312" viewBox="0 0 41.5508 16.0703" fill="none" xmlns="http://www.w3.org/2000/svg" xmlns:xlink="http://www.w3.org/1999/xlink">
	<desc>
			Created with Pixso.
	</desc>
	<defs/>
	<path id="DOG" d="M26.06 12.47Q26.85 10.74 26.85 8.44L26.85 7.57Q26.84 5.28 26.03 3.56Q25.41 2.23 24.39 1.38Q24.09 1.12 23.75 0.91Q23.46 0.73 23.16 0.59Q21.9 0 20.36 0Q18.85 0 17.61 0.58Q17.28 0.73 16.97 0.92Q16.68 1.11 16.42 1.32Q15.34 2.2 14.68 3.6Q13.87 5.36 13.87 7.64L13.87 8.52Q13.88 10.77 14.7 12.49Q15.3 13.77 16.29 14.62Q16.62 14.9 16.99 15.14Q17.35 15.36 17.73 15.53Q18.94 16.07 20.38 16.07Q21.94 16.07 23.2 15.46Q23.5 15.32 23.78 15.14Q24.13 14.92 24.43 14.66Q25.45 13.8 26.06 12.47ZM41.45 13.94Q41.5 13.88 41.55 13.82L41.55 7.83L35.62 7.83L35.62 9.89L38.84 9.89L38.84 12.95Q37.96 13.9 35.87 13.9Q34.74 13.9 33.9 13.4Q33.34 13.06 32.9 12.49Q31.83 11.09 31.83 8.56L31.83 7.35Q31.87 4.81 32.82 3.49Q33.16 3.02 33.62 2.71Q34.43 2.18 35.59 2.18Q36.99 2.18 37.8 2.86Q38.64 3.57 38.87 5L41.54 5Q41.27 2.93 40.11 1.69Q39.91 1.47 39.69 1.28Q39.68 1.28 39.67 1.27Q38.14 0 35.54 0Q33.39 0 31.91 0.99Q31.3 1.4 30.8 1.99Q29.11 3.98 29.11 7.53L29.11 8.75Q29.14 10.96 29.96 12.62Q30.5 13.72 31.34 14.48Q31.78 14.87 32.3 15.17Q32.47 15.27 32.64 15.36Q34.03 16.07 35.78 16.07Q37.69 16.07 39.19 15.5Q40.62 14.96 41.45 13.94ZM0 0.21L0 15.85L4.5 15.85Q6.51 15.85 8.09 15.02Q8.17 14.98 8.25 14.94Q8.99 14.52 9.58 13.95Q10.29 13.26 10.77 12.34Q11.66 10.65 11.66 8.43L11.66 7.64Q11.66 5.45 10.78 3.75Q10.25 2.74 9.46 2Q8.94 1.5 8.29 1.13Q8.14 1.04 7.98 0.96Q6.49 0.21 4.61 0.21L0 0.21ZM23.15 3.64Q24.13 5.02 24.13 7.62L24.13 8.44Q24.13 11.08 23.16 12.46Q22.75 13.03 22.2 13.37Q21.43 13.83 20.38 13.83Q19.43 13.83 18.69 13.43Q18.06 13.08 17.6 12.42Q16.59 11.02 16.59 8.44L16.59 7.54Q16.61 5.01 17.61 3.63Q18.06 3 18.68 2.66Q19.41 2.25 20.36 2.25Q21.39 2.25 22.16 2.7Q22.73 3.04 23.15 3.64ZM2.71 13.68L2.71 2.4L4.61 2.4Q6.2 2.4 7.21 3.16Q7.55 3.41 7.83 3.74Q8.93 5.09 8.93 7.63L8.93 8.5Q8.91 11.01 7.77 12.34Q7.5 12.66 7.17 12.9Q6.12 13.68 4.49 13.68L2.71 13.68Z" fill="#000000" fill-opacity="1.000000" fill-rule="evenodd"/>
</svg>
