<svg width="40.798706" height="36.999756" viewBox="0 0 40.7987 36.9998" fill="none" xmlns="http://www.w3.org/2000/svg" xmlns:xlink="http://www.w3.org/1999/xlink">
	<desc>
			Created with Pixso.
	</desc>
	<defs/>
	<g opacity="0.050000">
		<path id="Vector" d="M0 10.19C0 4.56 4.57 0 10.2 0C15.83 0 20.39 4.56 20.39 10.19C20.39 15.82 15.83 20.39 10.2 20.39C9.04 20.39 7.93 20.18 6.9 19.83C9.19 32.99 19.45 41.47 9.94 34.49C-0.61 26.74 -0.01 10.5 0 10.2C0 10.2 0 10.2 0 10.19Z" fill="#170C04" fill-opacity="1.000000" fill-rule="nonzero"/>
		<path id="Vector" d="M20.4 10.19C20.4 4.56 24.97 0 30.6 0C36.23 0 40.79 4.56 40.79 10.19C40.79 15.82 36.23 20.39 30.6 20.39C29.44 20.39 28.33 20.18 27.3 19.83C29.59 32.99 39.85 41.47 30.34 34.49C19.79 26.74 20.39 10.5 20.4 10.2C20.4 10.2 20.4 10.2 20.4 10.19Z" fill="#170C04" fill-opacity="1.000000" fill-rule="nonzero"/>
	</g>
</svg>
