<svg width="79.000000" height="15.000000" viewBox="0 0 79 15" fill="none" xmlns="http://www.w3.org/2000/svg" xmlns:xlink="http://www.w3.org/1999/xlink">
	<desc>
			Created with Pixso.
	</desc>
	<defs>
		<clipPath id="clip0_78">
			<rect id="star 1" rx="0.000000" width="14.000000" height="14.000000" transform="matrix(-1 0 0 1 15.5 0.5)" fill="white" fill-opacity="0"/>
		</clipPath>
		<clipPath id="clip0_82">
			<rect id="star 2" rx="0.000000" width="14.000000" height="14.000000" transform="matrix(-1 0 0 1 31.5 0.5)" fill="white" fill-opacity="0"/>
		</clipPath>
		<clipPath id="clip0_86">
			<rect id="star 3" rx="0.000000" width="14.000000" height="14.000000" transform="matrix(-1 0 0 1 47.5 0.5)" fill="white" fill-opacity="0"/>
		</clipPath>
		<clipPath id="clip0_90">
			<rect id="star 4" rx="0.000000" width="14.000000" height="14.000000" transform="matrix(-1 0 0 1 63.5 0.5)" fill="white" fill-opacity="0"/>
		</clipPath>
		<clipPath id="clip0_94">
			<rect id="star 5" rx="0.000000" width="14.000000" height="14.000000" transform="matrix(-1 0 0 1 79.5 0.5)" fill="white" fill-opacity="0"/>
		</clipPath>
	</defs>
	<rect id="star 1" rx="0.000000" width="14.000000" height="14.000000" transform="matrix(-1 0 0 1 15.5 0.5)" fill="#FFFFFF" fill-opacity="0"/>
	<g clip-path="url(#clip0_78)">
		<path id="Vector" d="M0 5.79L5.45 5.43L7.5 0.28L9.55 5.43L15 5.79L10.82 9.34L12.19 14.71L7.5 11.75L2.81 14.71L4.18 9.34L0 5.79Z" fill="#E27B3A" fill-opacity="1.000000" fill-rule="nonzero"/>
	</g>
	<rect id="star 2" rx="0.000000" width="14.000000" height="14.000000" transform="matrix(-1 0 0 1 31.5 0.5)" fill="#FFFFFF" fill-opacity="0"/>
	<g clip-path="url(#clip0_82)">
		<path id="Vector" d="M16 5.79L21.45 5.43L23.5 0.28L25.55 5.43L31 5.79L26.82 9.34L28.19 14.71L23.5 11.75L18.81 14.71L20.18 9.34L16 5.79Z" fill="#E27B3A" fill-opacity="1.000000" fill-rule="nonzero"/>
	</g>
	<rect id="star 3" rx="0.000000" width="14.000000" height="14.000000" transform="matrix(-1 0 0 1 47.5 0.5)" fill="#FFFFFF" fill-opacity="0"/>
	<g clip-path="url(#clip0_86)">
		<path id="Vector" d="M32 5.79L37.45 5.43L39.5 0.28L41.55 5.43L47 5.79L42.82 9.34L44.19 14.71L39.5 11.75L34.81 14.71L36.18 9.34L32 5.79Z" fill="#E27B3A" fill-opacity="1.000000" fill-rule="nonzero"/>
	</g>
	<rect id="star 4" rx="0.000000" width="14.000000" height="14.000000" transform="matrix(-1 0 0 1 63.5 0.5)" fill="#FFFFFF" fill-opacity="0"/>
	<g clip-path="url(#clip0_90)">
		<path id="Vector" d="M48 5.79L53.45 5.43L55.5 0.28L57.55 5.43L63 5.79L58.82 9.34L60.19 14.71L55.5 11.75L50.81 14.71L52.18 9.34L48 5.79Z" fill="#E2E2E2" fill-opacity="1.000000" fill-rule="nonzero"/>
	</g>
	<rect id="star 5" rx="0.000000" width="14.000000" height="14.000000" transform="matrix(-1 0 0 1 79.5 0.5)" fill="#FFFFFF" fill-opacity="0"/>
	<g clip-path="url(#clip0_94)">
		<path id="Vector" d="M64 5.79L69.45 5.43L71.5 0.28L73.55 5.43L79 5.79L74.82 9.34L76.19 14.71L71.5 11.75L66.81 14.71L68.18 9.34L64 5.79Z" fill="#E2E2E2" fill-opacity="1.000000" fill-rule="nonzero"/>
	</g>
</svg>
