<svg width="40.000000" height="40.000000" viewBox="0 0 40 40" fill="none" xmlns="http://www.w3.org/2000/svg" xmlns:xlink="http://www.w3.org/1999/xlink">
	<desc>
			Created with Pixso.
	</desc>
	<defs/>
	<circle id="Ellipse 4" cx="20.000000" cy="20.000000" r="20.000000" fill="#DFDFDF" fill-opacity="1.000000"/>
	<path id="Vector" d="M27.76 15.42C27.22 15.66 26.63 15.82 26.02 15.89C26.65 15.52 27.13 14.93 27.35 14.22C26.77 14.57 26.12 14.82 25.43 14.95C24.88 14.36 24.08 14 23.22 14C21.54 14 20.19 15.36 20.19 17.02C20.19 17.26 20.21 17.49 20.26 17.71C17.75 17.59 15.52 16.38 14.02 14.55C13.76 15 13.61 15.52 13.61 16.08C13.61 17.13 14.15 18.06 14.95 18.59C14.47 18.58 13.99 18.44 13.59 18.22C13.59 18.23 13.59 18.24 13.59 18.25C13.59 19.73 14.64 20.95 16.01 21.23C15.77 21.3 15.5 21.33 15.22 21.33C15.02 21.33 14.83 21.32 14.64 21.28C15.04 22.48 16.15 23.36 17.47 23.39C16.44 24.19 15.14 24.68 13.72 24.68C13.47 24.68 13.23 24.67 13 24.64C14.34 25.5 15.93 26 17.64 26C23.21 26 26.26 21.38 26.26 17.38C26.26 17.25 26.25 17.12 26.25 16.99C26.85 16.56 27.35 16.03 27.76 15.42Z" fill="#211105" fill-opacity="1.000000" fill-rule="nonzero"/>
</svg>
